<svg width="91" height="91" viewBox="0 0 91 91" fill="none" xmlns="http://www.w3.org/2000/svg">
<circle cx="45.5" cy="45.5" r="45.5" fill="url(#paint0_linear_35_659)"/>
<g clip-path="url(#clip0_35_659)">
<path d="M16.24 56.12C15.9733 56.12 15.7867 56.0267 15.68 55.84C15.5733 55.6533 15.52 55.4533 15.52 55.24C15.5467 54.7867 15.6533 54.5333 15.84 54.48C16.0267 54.4267 16.2533 54.4 16.52 54.4C17.24 54.4 17.7867 54.2533 18.16 53.96C18.5333 53.6667 18.8267 53.28 19.04 52.8C19.28 52.32 19.5067 51.8267 19.72 51.32L26.72 34.76C26.9867 34.12 27.04 33.64 26.88 33.32C26.72 32.9733 26.4533 32.7333 26.08 32.6C25.7067 32.44 25.2933 32.32 24.84 32.24C24.44 32.16 24.1733 32.0933 24.04 32.04C23.9067 31.96 23.84 31.72 23.84 31.32C23.84 30.8667 24 30.6267 24.32 30.6C24.64 30.5467 25.0133 30.52 25.44 30.52C26.5333 30.52 27.4667 30.6267 28.24 30.84C29.0133 31.0533 29.68 31.4667 30.24 32.08C30.8 32.6667 31.32 33.56 31.8 34.76L38.52 51.32C38.7067 51.7733 38.9067 52.24 39.12 52.72C39.3333 53.2 39.6133 53.6 39.96 53.92C40.3333 54.2133 40.8 54.3733 41.36 54.4C41.6533 54.4 41.88 54.4267 42.04 54.48C42.2267 54.5333 42.3333 54.7867 42.36 55.24C42.36 55.4533 42.2933 55.6533 42.16 55.84C42.0533 56.0267 41.88 56.12 41.64 56.12C40.7867 56.0667 40.04 56.0267 39.4 56C38.76 56 38.04 56 37.24 56C35.6667 56 34.0133 56.04 32.28 56.12C32.0133 56.12 31.8267 56.0267 31.72 55.84C31.6133 55.6533 31.56 55.4533 31.56 55.24C31.5867 54.7867 31.6933 54.5333 31.88 54.48C32.0667 54.4267 32.2933 54.4 32.56 54.4C33.8667 54.4 34.5733 54.16 34.68 53.68C34.8133 53.2 34.6933 52.4133 34.32 51.32L32.96 48H23.08C22.68 49.0133 22.3867 49.7467 22.2 50.2C22.04 50.6533 21.9333 50.9467 21.88 51.08C21.8533 51.2133 21.8267 51.2933 21.8 51.32C21.5067 52.2267 21.3467 52.9067 21.32 53.36C21.32 53.7867 21.5333 54.0667 21.96 54.2C22.4133 54.3333 23.16 54.4 24.2 54.4C24.4933 54.4 24.72 54.4267 24.88 54.48C25.0667 54.5333 25.1733 54.7867 25.2 55.24C25.2 55.4533 25.1333 55.6533 25 55.84C24.8933 56.0267 24.72 56.12 24.48 56.12C23.6267 56.0667 22.88 56.0267 22.24 56C21.6267 56 20.92 56 20.12 56C19.5867 56 19.1333 56 18.76 56C18.4133 56.0267 18.0533 56.04 17.68 56.04C17.3067 56.0667 16.8267 56.0933 16.24 56.12ZM23.84 46.28H32.24L28.2 36H28.08L23.84 46.28ZM46.5328 56.48C45.8128 56.48 45.2128 56.2533 44.7328 55.8C44.2528 55.32 44.0128 54.7067 44.0128 53.96C44.0128 53.2667 44.2528 52.68 44.7328 52.2C45.2128 51.72 45.8261 51.48 46.5728 51.48C47.2928 51.48 47.8928 51.72 48.3728 52.2C48.8795 52.68 49.1328 53.2667 49.1328 53.96C49.1328 54.7067 48.8795 55.32 48.3728 55.8C47.8928 56.2533 47.2795 56.48 46.5328 56.48ZM53.4 56.12C53.16 56.12 52.9733 56.0267 52.84 55.84C52.7333 55.6533 52.68 55.4533 52.68 55.24C52.7067 54.7867 52.8133 54.5333 53 54.48C53.2133 54.4267 53.4533 54.4 53.72 54.4C54.5733 54.4 55.1733 54.2533 55.52 53.96C55.8667 53.64 56.08 53.2533 56.16 52.8C56.2667 52.32 56.32 51.8267 56.32 51.32V35.44C56.32 34.9333 56.2667 34.4533 56.16 34C56.08 33.52 55.8667 33.1333 55.52 32.84C55.1733 32.52 54.5733 32.36 53.72 32.36C53.4533 32.36 53.2133 32.3333 53 32.28C52.8133 32.2267 52.7067 31.9733 52.68 31.52C52.68 31.3067 52.7333 31.1067 52.84 30.92C52.9733 30.7333 53.16 30.64 53.4 30.64C54.2533 30.6667 55.0667 30.6933 55.84 30.72C56.6133 30.7467 57.4 30.76 58.2 30.76H64.2C64.7067 30.76 65.36 30.8 66.16 30.88C66.9867 30.96 67.8533 31.12 68.76 31.36C69.6933 31.6 70.5733 31.9867 71.4 32.52C72.2267 33.0533 72.8933 33.76 73.4 34.64C73.9333 35.52 74.2 36.6267 74.2 37.96C74.2 39.2133 73.9067 40.3467 73.32 41.36C72.76 42.3733 72 43.24 71.04 43.96C70.1067 44.68 69.04 45.24 67.84 45.64C66.6667 46.0133 65.4667 46.2 64.24 46.2C63.6533 46.2 63.0133 46.16 62.32 46.08C61.6267 46 60.9333 45.8267 60.24 45.56V51.32C60.2667 51.8267 60.32 52.32 60.4 52.8C60.48 53.2533 60.6933 53.64 61.04 53.96C61.4133 54.2533 62.0133 54.4 62.84 54.4C63.1333 54.4 63.3733 54.4267 63.56 54.48C63.7467 54.5333 63.8533 54.7867 63.88 55.24C63.88 55.4533 63.8133 55.6533 63.68 55.84C63.5733 56.0267 63.4 56.12 63.16 56.12C61.4533 56.04 59.7867 56 58.16 56C57.36 56 56.5733 56 55.8 56C55.0533 56.0267 54.2533 56.0667 53.4 56.12ZM63.08 44.4C63.6933 44.4 64.3733 44.3067 65.12 44.12C65.8933 43.9067 66.6267 43.5733 67.32 43.12C68.04 42.64 68.6267 42 69.08 41.2C69.5333 40.3733 69.76 39.3333 69.76 38.08C69.76 36.72 69.4933 35.6533 68.96 34.88C68.4267 34.08 67.76 33.4933 66.96 33.12C66.1867 32.7467 65.4133 32.5067 64.64 32.4C63.8667 32.2933 63.24 32.24 62.76 32.24C62.12 32.24 61.6133 32.3067 61.24 32.44C60.8667 32.5733 60.6 32.8667 60.44 33.32C60.3067 33.7467 60.24 34.4133 60.24 35.32V43.96C60.5067 44.0667 60.8933 44.1733 61.4 44.28C61.9067 44.36 62.4667 44.4 63.08 44.4Z" fill="white"/>
</g>
<defs>
<linearGradient id="paint0_linear_35_659" x1="45.5" y1="0" x2="45.5" y2="91" gradientUnits="userSpaceOnUse">
<stop offset="0.148958" stop-color="#C24229"/>
<stop offset="1" stop-color="#EFB758"/>
</linearGradient>
<clipPath id="clip0_35_659">
<rect width="80" height="63" fill="white" transform="translate(2 4)"/>
</clipPath>
</defs>
</svg>
